<?xml version="1.0" standalone="no"?>
<!DOCTYPE svg PUBLIC "-//W3C//DTD SVG 20010904//EN"
 "http://www.w3.org/TR/2001/REC-SVG-20010904/DTD/svg10.dtd">
<svg version="1.0" xmlns="http://www.w3.org/2000/svg"
 width="512.000000pt" height="512.000000pt" viewBox="0 0 512.000000 512.000000"
 preserveAspectRatio="xMidYMid meet">
<metadata>
Created by potrace 1.14, written by Peter Selinger 2001-2017
</metadata>
<g transform="translate(0.000000,512.000000) scale(0.100000,-0.100000)"
fill="#000000" stroke="none">
<path d="M3870 5027 c-96 -75 -440 -353 -500 -404 -14 -12 -59 -49 -100 -83
-41 -34 -85 -70 -97 -80 -11 -10 -45 -38 -75 -62 -29 -24 -64 -53 -78 -65 -14
-12 -99 -83 -190 -158 -91 -75 -176 -147 -190 -158 -14 -12 -90 -76 -170 -142
-80 -66 -150 -124 -156 -130 -6 -5 -30 -26 -54 -45 -24 -19 -86 -70 -139 -113
-107 -88 -207 -169 -254 -207 -72 -58 -272 -224 -277 -230 -3 -3 -17 -15 -32
-26 -15 -12 -51 -41 -80 -66 -29 -25 -96 -81 -148 -124 -52 -44 -108 -91 -125
-105 -66 -58 -510 -431 -527 -443 -28 -20 -56 -81 -51 -110 3 -13 16 -34 29
-47 l23 -22 508 2 c279 1 637 3 795 4 157 2 294 0 303 -3 15 -5 14 -8 -3 -30
-14 -19 -277 -454 -374 -620 -5 -8 -53 -89 -108 -180 -54 -91 -132 -220 -172
-288 -40 -68 -80 -135 -89 -150 -9 -15 -114 -190 -233 -390 -249 -416 -271
-458 -256 -496 24 -64 104 -51 196 32 11 9 46 39 79 67 33 27 62 52 65 55 3 3
46 39 95 80 50 41 92 77 95 80 3 3 25 21 50 41 25 20 56 47 70 59 14 12 47 40
75 63 45 39 289 246 480 408 86 72 507 432 590 504 28 23 185 158 350 300 332
285 342 294 441 381 38 34 110 96 159 139 245 211 505 446 592 533 54 55 71
98 59 147 -8 30 -40 62 -70 67 -12 2 -161 3 -331 2 -334 -3 -1110 -6 -1187 -5
l-47 1 38 58 c21 31 79 125 130 207 51 83 142 229 202 325 60 96 113 182 118
190 5 8 70 111 143 228 73 116 199 319 281 450 327 526 330 531 330 573 0 21
-6 45 -13 54 -26 31 -62 17 -170 -68z"/>
</g>
</svg>
